<?xml version="1.0" encoding="utf-8"?>
<!-- Generator: Adobe Illustrator 21.0.0, SVG Export Plug-In . SVG Version: 6.00 Build 0)  -->
<svg version="1.1" id="图层_1" xmlns="http://www.w3.org/2000/svg" xmlns:xlink="http://www.w3.org/1999/xlink" x="0px" y="0px"
	 viewBox="0 0 92 16" style="enable-background:new 0 0 92 16;" xml:space="preserve">
<style type="text/css">
	.st0{fill:#FFFFFF;}
</style>
<rect width="92" height="16"/>
<g>
	<path class="st0" d="M39.6,7.4L39,8c-0.3-0.4-0.8-0.8-1.5-1.3l0.6-0.6C38.7,6.5,39.2,6.9,39.6,7.4z M39.6,8.9
		c-0.3,1.1-0.7,2.2-1.2,3.1l-0.8-0.4c0.5-1,0.9-2,1.2-3.1L39.6,8.9z M39.8,5.1l-0.6,0.6c-0.3-0.4-0.8-0.8-1.4-1.2l0.6-0.6
		C38.9,4.3,39.4,4.7,39.8,5.1z M43.1,3.8v0.5h2.3V5h-2.3v0.4h2v0.7h-2v0.4h2.6v0.7h-5.9V6.6h2.5V6.2h-1.9V5.5h1.9V5h-2.3V4.3h2.3
		V3.8H43.1z M41.3,12.1h-0.8V7.7H45v3.5c0,0.6-0.3,0.8-0.8,0.8h-0.8l-0.2-0.8l0.8,0c0.2,0,0.2-0.1,0.2-0.3v-0.4h-2.8V12.1z
		 M44.1,8.4h-2.8v0.5h2.8V8.4z M41.3,10.1h2.8V9.6h-2.8V10.1z"/>
	<path class="st0" d="M51,4.7h3.4v1.9h-0.9V5.4h-6v1.1h-0.9V4.7h3.4c-0.1-0.3-0.2-0.5-0.4-0.7l0.9-0.1C50.8,4,50.9,4.3,51,4.7z
		 M53.7,8.4v0.8H51V11h3.4v0.8h-7.7V11h3.4V9.2h-2.7V8.4H53.7z M50,6.6c-0.7,0.6-1.6,1.2-2.6,1.6L47,7.3c1-0.4,1.8-0.8,2.5-1.4
		L50,6.6z M54,7.4l-0.5,0.7c-0.8-0.7-1.7-1.2-2.5-1.6l0.5-0.7C52.4,6.3,53.3,6.8,54,7.4z"/>
</g>
<g>
</g>
<g>
</g>
<g>
</g>
<g>
</g>
<g>
</g>
<g>
</g>
</svg>
