<?xml version="1.0" encoding="utf-8"?>
<!-- Generator: Adobe Illustrator 21.0.0, SVG Export Plug-In . SVG Version: 6.00 Build 0)  -->
<svg version="1.1" id="图层_1" xmlns="http://www.w3.org/2000/svg" xmlns:xlink="http://www.w3.org/1999/xlink" x="0px" y="0px"
	 viewBox="0 0 92 16" style="enable-background:new 0 0 92 16;" xml:space="preserve">
<style type="text/css">
	.st0{fill:#FFFFFF;}
</style>
<rect width="92" height="16"/>
<g>
	<path class="st0" d="M42.8,8.5V8h0.9v0.5h1.9v0.8h-1.9V11c0,0.6-0.3,0.9-0.9,0.9h-1.1L41.4,11c0.4,0,0.7,0.1,1,0.1
		c0.2,0,0.4-0.1,0.4-0.3V9.3h-5.4V8.5H42.8z M44.3,6.1h-5.1v0.5c0,0.2,0.1,0.4,0.4,0.4h4.7c0.1,0,0.2-0.1,0.3-0.2
		c0-0.1,0.1-0.3,0.1-0.6l0.8,0.3c-0.1,0.4-0.1,0.7-0.2,0.9c-0.1,0.3-0.4,0.4-0.8,0.5h-5.3c-0.6,0-0.9-0.3-0.9-0.8V3.8h6V6.1z
		 M41.1,10.8l-0.6,0.6C40.1,11,39.6,10.5,39,10l0.6-0.6C40.2,9.9,40.7,10.3,41.1,10.8z M43.4,5.4V4.6h-4.3v0.7H43.4z"/>
	<path class="st0" d="M48.6,4l0.7-0.5c0.8,0.5,1.4,1.5,2,3c0.9,2.1,2,3.6,3.3,4.5l-0.5,0.7c-1.4-0.8-2.6-2.5-3.5-4.9
		c0-0.1,0-0.1-0.1-0.2c-0.6,2.2-1.8,3.9-3.6,5.1L46.3,11c1.9-1.2,3.1-3,3.7-5.3C49.6,5,49.1,4.4,48.6,4z"/>
</g>
<g>
</g>
<g>
</g>
<g>
</g>
<g>
</g>
<g>
</g>
<g>
</g>
</svg>
