<?xml version="1.0" encoding="utf-8"?>
<!-- Generator: Adobe Illustrator 21.0.0, SVG Export Plug-In . SVG Version: 6.00 Build 0)  -->
<svg version="1.1" id="图层_1" xmlns="http://www.w3.org/2000/svg" xmlns:xlink="http://www.w3.org/1999/xlink" x="0px" y="0px"
	 viewBox="0 0 130 40" style="enable-background:new 0 0 130 40;" xml:space="preserve">
<style type="text/css">
	.st0{fill:#1A1A1B;}
	.st1{fill:#FFFFFF;}
</style>
<rect class="st0" width="130" height="40"/>
<g>
	<path class="st1" d="M43.1,12.6v-1.9h19.4v1.9h-8.9l-0.8,2.3h8.7v14.4h-2.1v-1.2H46.1v1.2H44V14.9h6.5l0.7-2.3H43.1z M46.1,16.7
		v9.7h2.7v-9.7H46.1z M50.9,16.7V19h3.9v-2.2H50.9z M50.9,20.5v2.1h3.9v-2.1H50.9z M50.9,24.2v2.2h3.9v-2.2H50.9z M59.5,16.7h-2.8
		v9.7h2.8V16.7z"/>
	<path class="st1" d="M64.1,19.1v-1.9h3.2V9.8h2.1v7.5h3v1.9h-3v2.1l0.7-0.7c0.2,0.2,0.4,0.4,0.7,0.7c0.9,0.9,1.5,1.6,2,2.1
		l-1.3,1.5c-0.3-0.4-0.7-0.9-1.4-1.6c-0.3-0.3-0.5-0.6-0.7-0.7v7h-2.1v-7c-0.6,1.4-1.5,2.9-2.8,4.5c-0.2-0.8-0.4-1.6-0.7-2.4
		c1.2-1.3,2.3-3.1,3.3-5.3H64.1z M65.4,16.2c-0.6-1.8-1.1-3.1-1.4-4.1l1.5-0.5c0.3,1,0.8,2.4,1.4,4.1L65.4,16.2z M71,16.3l-1.4-0.6
		c0.7-1.5,1.2-2.8,1.7-4.1l1.5,0.6C72.3,13.5,71.7,14.8,71,16.3z M73,24.5l-0.2-2.1l6.2-0.6V9.8h2.1v11.9l2.6-0.2l0.1,2.1l-2.7,0.2
		v5.6h-2.1V24L73,24.5z M76.4,20.8c-1.3-1.1-2.4-2-3.3-2.6l1.2-1.5c1.2,0.9,2.3,1.7,3.4,2.5L76.4,20.8z M77,15.8
		c-1.2-1.1-2.3-2.1-3.2-2.8l1.3-1.4c0.2,0.2,0.4,0.4,0.8,0.6c1,0.8,1.9,1.5,2.5,2.1L77,15.8z"/>
</g>
<g>
</g>
<g>
</g>
<g>
</g>
<g>
</g>
<g>
</g>
<g>
</g>
</svg>
