<?xml version="1.0" encoding="utf-8"?>
<!-- Generator: Adobe Illustrator 21.0.0, SVG Export Plug-In . SVG Version: 6.00 Build 0)  -->
<svg version="1.1" id="图层_1" xmlns="http://www.w3.org/2000/svg" xmlns:xlink="http://www.w3.org/1999/xlink" x="0px" y="0px"
	 viewBox="0 0 70 17" style="enable-background:new 0 0 70 17;" xml:space="preserve">
<style type="text/css">
	.st0{fill:#FFFFFF;}
</style>
<rect width="70" height="17"/>
<g>
	<path class="st0" d="M26.7,12.5l-0.2-0.8c0.3,0,0.5,0.1,0.7,0.1c0.2,0,0.3-0.1,0.3-0.4V9.5c-0.3,0.1-0.6,0.2-0.9,0.3L26.5,9
		c0.4-0.1,0.7-0.2,1.1-0.3V6.8h-0.9V5.9h0.9V4.3h0.8v1.6h0.7v0.8h-0.7v1.6c0.3-0.1,0.5-0.3,0.8-0.4v0.8C29,8.9,28.7,9,28.4,9.1v2.5
		c0,0.6-0.3,0.9-0.8,0.9H26.7z M30.3,7.6h1.3V4.3h0.8v3.2h1.2V6.9h-0.8V6.2h0.8V5.4h-0.9V4.7h1.6v3.6h-2V9h2v0.7
		c-0.3,0.6-0.8,1.1-1.4,1.5c0.5,0.2,1.2,0.4,1.9,0.6l-0.3,0.8c-1-0.2-1.8-0.5-2.4-0.9c-0.7,0.4-1.6,0.6-2.7,0.9l-0.4-0.8
		c0.9-0.2,1.6-0.4,2.3-0.6c-0.6-0.4-1-0.9-1.3-1.5h-0.4V9h2.1V8.3h-2V4.9c0.5-0.1,0.9-0.3,1.4-0.5L31.4,5c-0.3,0.1-0.6,0.3-1.1,0.4
		v0.7h0.9v0.7h-0.9V7.6z M32.1,10.8c0.6-0.3,1-0.7,1.3-1.1h-2.6C31.1,10.2,31.5,10.5,32.1,10.8z"/>
	<path class="st0" d="M38.5,11.1c-0.7,0.5-1.6,1-2.6,1.3l-0.4-0.8c1-0.3,1.8-0.7,2.4-1.1L38.5,11.1z M39.2,4.9V4.3H40v0.6h3v0.8h-3
		v0.6h3.4v1.8h-0.8v-1h-3.2l0.4,0.2c-0.5,0.4-1,0.7-1.5,1c0.7,0,1.3,0,1.7-0.1c0.3-0.2,0.6-0.4,0.9-0.7L41.6,8
		c-0.9,0.7-2,1.3-3.1,1.7c1,0,2-0.1,2.9-0.1C41.3,9.3,41.2,9.1,41,9l0.6-0.4c0.6,0.6,1.1,1.2,1.5,1.7l-0.6,0.5
		c-0.1-0.2-0.3-0.4-0.4-0.6c-0.7,0-1.3,0.1-1.9,0.1v1.6c0,0.5-0.3,0.8-0.8,0.8h-0.8l-0.2-0.8c0.2,0,0.5,0.1,0.7,0.1
		c0.2,0,0.3-0.1,0.3-0.3v-1.3c-1,0-1.8,0.1-2.7,0.1l-0.2-0.8c0.3,0,0.5,0,0.7,0c0.6-0.2,1.3-0.4,1.9-0.8c-0.5,0-1.1,0-1.8,0.1
		l-0.2-0.6c0.1,0,0.3-0.1,0.4-0.2c0.5-0.3,1-0.6,1.4-1h-2.3v1h-0.8V6.3h3.4V5.7h-3V4.9H39.2z M43.5,11.8l-0.4,0.7
		c-0.8-0.5-1.7-1-2.5-1.3l0.4-0.6C41.9,10.9,42.8,11.3,43.5,11.8z"/>
</g>
<g>
</g>
<g>
</g>
<g>
</g>
<g>
</g>
<g>
</g>
<g>
</g>
</svg>
