<?xml version="1.0" encoding="utf-8"?>
<!-- Generator: Adobe Illustrator 21.0.0, SVG Export Plug-In . SVG Version: 6.00 Build 0)  -->
<svg version="1.1" id="图层_1" xmlns="http://www.w3.org/2000/svg" xmlns:xlink="http://www.w3.org/1999/xlink" x="0px" y="0px"
	 viewBox="0 0 66 14" style="enable-background:new 0 0 66 14;" xml:space="preserve">
<style type="text/css">
	.st0{fill:#040000;}
	.st1{fill:#FFFFFF;}
</style>
<rect x="0" y="0" class="st0" width="66" height="14"/>
<g>
	<path class="st1" d="M19.6,3.3v1.6h1.6c0,2.6,0,4.2-0.1,4.8c-0.1,0.6-0.5,0.9-1.2,0.9c-0.1,0-0.3,0-0.6,0L19,9.8c0.3,0,0.5,0,0.7,0
		c0.3,0,0.5-0.2,0.6-0.6c0-0.4,0.1-1.6,0.1-3.8h-0.9c0,2.3-0.6,4-1.6,5.1l-0.6-0.5c0.9-1,1.4-2.5,1.4-4.6h-1.2V4.8h1.2V3.3H19.6z
		 M24.5,10.5h-0.7V10h-1.3v0.5h-0.7V4.4h2.7V10.5z M23.8,9.3V5.1h-1.3v4.2H23.8z"/>
	<path class="st1" d="M27.4,3.7l0.6-0.4c0.7,0.5,1.3,1.4,1.8,2.7c0.8,1.9,1.7,3.2,3,4l-0.5,0.6c-1.3-0.8-2.3-2.2-3.1-4.3
		c0-0.1,0-0.1-0.1-0.2c-0.5,1.9-1.6,3.4-3.2,4.5l-0.5-0.6c1.7-1.1,2.8-2.7,3.3-4.7C28.4,4.5,27.9,4,27.4,3.7z"/>
	<path class="st1" d="M37.4,10.5c-0.5,0-0.9-0.1-1.3-0.1c-0.3-0.1-0.6-0.3-0.8-0.6c-0.1-0.1-0.2-0.2-0.3-0.2c-0.2,0-0.5,0.4-0.9,1.1
		l-0.6-0.5c0.4-0.7,0.8-1.1,1.1-1.2V6.7h-1.1V6h1.8v3c0,0,0.1,0.1,0.1,0.1c0.2,0.2,0.4,0.4,0.6,0.5c0.2,0.1,0.6,0.2,1.1,0.2
		c0.4,0,1,0,1.6,0c0.4,0,0.8,0,1.2,0c0.4,0,0.7,0,0.9,0l-0.2,0.8h-1.8C38.4,10.5,37.9,10.5,37.4,10.5z M35.6,4.6L35,5.1
		c-0.3-0.4-0.7-0.8-1.3-1.3l0.5-0.5C34.8,3.8,35.2,4.2,35.6,4.6z M38.8,3.2v1h1.5v0.7h-1.5v1h1.8v0.7h-1.3v2c0,0.1,0.1,0.2,0.2,0.2
		h0.2c0.1,0,0.2,0,0.2-0.1c0.1-0.1,0.1-0.4,0.1-0.9L40.7,8c-0.1,0.7-0.2,1.1-0.3,1.2c-0.1,0.1-0.3,0.2-0.6,0.2h-0.6
		c-0.2,0-0.4-0.1-0.5-0.2c-0.1-0.1-0.2-0.3-0.2-0.5V6.6h-0.7c0,0.5-0.1,1-0.2,1.4c-0.2,0.6-0.7,1.1-1.4,1.5l-0.5-0.6
		c0.6-0.3,1-0.7,1.2-1.2c0.1-0.3,0.2-0.7,0.2-1.1H36V5.9h2.1v-1h-1.2c-0.1,0.3-0.3,0.5-0.4,0.8l-0.7-0.4c0.4-0.6,0.7-1.2,0.9-1.9
		l0.7,0.1c-0.1,0.2-0.1,0.5-0.2,0.7h0.8v-1H38.8z"/>
	<path class="st1" d="M43.3,10.6h-0.7V6.9c-0.2,0.6-0.5,1.2-0.8,1.7l-0.4-0.6c0.5-0.7,0.9-1.5,1.2-2.5h-0.9V4.8h0.9V3.3h0.7v1.5h0.7
		v0.7h-0.7v0.4c0.3,0.3,0.6,0.7,1,1.1l-0.4,0.6c-0.2-0.4-0.4-0.6-0.6-0.9V10.6z M44.4,5.3V4.6h1.1c-0.2-0.4-0.4-0.8-0.6-1.1l0.6-0.3
		c0.2,0.3,0.5,0.7,0.7,1.1l-0.4,0.2h1.2c0.2-0.4,0.4-0.9,0.6-1.4l0.7,0.2c-0.2,0.4-0.4,0.8-0.6,1.1h1v0.7h-1.7v1h1.5v0.7h-1.5v1h2
		v0.7h-2v1.8h-0.8V8.8h-1.9V8.1h1.9v-1h-1.5V6.3h1.5v-1H44.4z"/>
</g>
<g>
</g>
<g>
</g>
<g>
</g>
<g>
</g>
<g>
</g>
<g>
</g>
</svg>
