<?xml version="1.0" encoding="utf-8"?>
<!-- Generator: Adobe Illustrator 21.0.0, SVG Export Plug-In . SVG Version: 6.00 Build 0)  -->
<svg version="1.1" id="图层_1" xmlns="http://www.w3.org/2000/svg" xmlns:xlink="http://www.w3.org/1999/xlink" x="0px" y="0px"
	 viewBox="0 0 228 58" style="enable-background:new 0 0 228 58;" xml:space="preserve">
<g>
	<path d="M34.2,0.3v12.2h-19v9.8H33v11.7H15.3v23.5H0.4V0.3H34.2z"/>
	<path d="M53.1,41.5c0,2.8,0.4,4.6,1.2,5.6c0.8,0.9,1.9,1.4,3.3,1.4c1.4,0,2.5-0.5,3.3-1.4c0.8-0.9,1.2-2.8,1.2-5.6V0.3H77v37.4
		c0,4-0.4,7.3-1.3,10c-0.9,2.7-2.1,4.8-3.7,6.4c-1.6,1.6-3.6,2.7-6,3.3s-5.2,0.9-8.3,0.9c-3.1,0-5.9-0.3-8.3-0.9
		c-2.4-0.6-4.5-1.7-6.1-3.3c-1.6-1.6-2.9-3.7-3.7-6.4c-0.9-2.7-1.3-6-1.3-10V0.3h14.9V41.5z"/>
	<path d="M98.2,0.3v45h18.3v12.2H83.4V0.3H98.2z"/>
	<path d="M134.7,0.3v57.1h-14.9V0.3H134.7z"/>
	<path d="M162.8,0.3c4.3,0,7.7,0.8,10.1,2.4c2.4,1.6,4.2,3.7,5.4,6.3c1.2,2.6,1.9,5.7,2.2,9.1c0.3,3.4,0.4,7,0.4,10.8
		c0,3.7-0.1,7.3-0.4,10.8c-0.3,3.4-1,6.5-2.2,9.1c-1.2,2.6-3,4.7-5.4,6.3c-2.4,1.6-5.8,2.4-10.1,2.4h-21.6V0.3H162.8z M159,46.7
		c1.4,0,2.6-0.2,3.4-0.6c0.9-0.4,1.5-1.2,2-2.5s0.7-3.1,0.9-5.4c0.1-2.3,0.2-5.4,0.2-9.3c0-3.8-0.1-6.9-0.2-9.3
		c-0.1-2.3-0.4-4.2-0.9-5.4c-0.5-1.3-1.1-2.1-2-2.5c-0.9-0.4-2-0.6-3.4-0.6h-3v35.7H159z"/>
	<path d="M213.8,0.3l13.9,57.1h-15.8l-1.5-10h-11.8l-1.5,10h-15.6L195,0.3H213.8z M204.3,12l-4.1,24.2h8.3L204.5,12H204.3z"/>
</g>
</svg>
